<svg id="Capa_1" enable-background="new 0 0 512 512" height="512" viewBox="0 0 512 512" width="512" xmlns="http://www.w3.org/2000/svg" xmlns:xlink="http://www.w3.org/1999/xlink"><linearGradient id="SVGID_1_" gradientUnits="userSpaceOnUse" x1="256" x2="256" y1="496" y2="76"><stop offset="0" stop-color="#addcff"/><stop offset=".5028" stop-color="#eaf6ff"/><stop offset="1" stop-color="#eaf6ff"/></linearGradient><linearGradient id="SVGID_2_" gradientUnits="userSpaceOnUse" x1="256" x2="256" y1="406" y2="16"><stop offset="0" stop-color="#5558ff"/><stop offset="1" stop-color="#00c0ff"/></linearGradient><g><g><g><path d="m30 76v270h452v-270zm236.605 304.395c-5.859-5.859-15.352-5.859-21.211 0l-90 90c-4.277 4.292-5.566 10.737-3.252 16.348s7.794 9.257 13.858 9.257h180c6.064 0 11.543-3.647 13.857-9.258s1.025-12.056-3.252-16.348z" fill="url(#SVGID_1_)"/></g></g><path d="m91 241.601v28.799l30 20.101 30-20.101v-28.799l-30-20.101zm105-75-30-20.101-30 20.101v28.799l30 20.101 30-20.101zm301-150.601h-482c-8.401 0-15 6.599-15 15v360c0 8.401 6.599 15 15 15h482c8.401 0 15-6.599 15-15v-360c0-8.401-6.599-15-15-15zm-226 262.5c0 5.099-2.402 9.6-6.599 12.599l-45 30c-5.594 3.104-10.84 3.308-16.802 0l-36.599-24.6-36.599 24.6c-5.594 3.104-10.84 3.308-16.802 0l-45-30c-4.197-2.999-6.599-7.5-6.599-12.599v-45c0-5.099 2.402-9.6 6.599-12.599l38.401-25.502v-36.899c0-5.099 2.402-9.6 6.599-12.599l45-30c5.101-3.301 11.7-3.301 16.802 0l45 30c4.197 2.999 6.599 7.5 6.599 12.599v36.899l38.401 25.501c4.197 2.999 6.599 7.5 6.599 12.599zm165 37.5h-120c-8.401 0-15-6.599-15-15s6.599-15 15-15h120c8.401 0 15 6.599 15 15s-6.599 15-15 15zm0-60h-120c-8.401 0-15-6.599-15-15s6.599-15 15-15h120c8.401 0 15 6.599 15 15s-6.599 15-15 15zm0-60h-120c-8.401 0-15-6.599-15-15s6.599-15 15-15h120c8.401 0 15 6.599 15 15s-6.599 15-15 15zm0-60h-120c-8.401 0-15-6.599-15-15s6.599-15 15-15h120c8.401 0 15 6.599 15 15s-6.599 15-15 15zm-255 105.601v28.799l30 20.101 30-20.101v-28.799l-30-20.101z" fill="url(#SVGID_2_)"/></g></svg>